<?xml version="1.0" encoding="utf-8"?>
<!-- Generator: Adobe Illustrator 27.4.1, SVG Export Plug-In . SVG Version: 6.00 Build 0)  -->
<svg version="1.1" id="Capa_1" xmlns="http://www.w3.org/2000/svg" xmlns:xlink="http://www.w3.org/1999/xlink" x="0px" y="0px"
	 viewBox="0 0 150 150" style="enable-background:new 0 0 150 150;" xml:space="preserve">
<g>
	<path d="M96.7,83.7c0.1,0,0.2,0,0.4,0c0,0,0,0,0,0c-0.2,0-0.4,0-0.5-0.1c-1.1-0.1-2-0.6-2.6-1.6c0-0.1-0.1-0.1-0.1-0.2
		c0-0.1-0.1-0.1-0.1-0.2c0,0,0,0,0,0c0,0.1-0.1,0.1-0.1,0.2c-0.1,0.3-0.1,0.5-0.1,0.8c0,0.2-0.1,0.4-0.1,0.7c0,0.1-0.1,0.1-0.1,0.1
		c-0.2,0-0.3,0-0.5,0c-1.4,0-2.7,0-4.1,0c-0.1,0-0.1,0-0.2,0c-0.1,0-0.1,0-0.1-0.1c0.2-1,0.4-1.9,0.6-2.9c0-0.2,0.1-0.4,0.1-0.6
		c0,0,0.1-0.1,0.1-0.1c0.1,0,0.1,0,0.2,0c4.4,0,8.9,0,13.3,0c0.2,0,0.5,0,0.8,0c-0.6,1.1-1.4,2.1-2.4,2.8c-1,0.7-2.2,1.2-3.4,1.2
		c0.1,0,0.2,0,0.3,0C97.5,83.7,97.1,83.7,96.7,83.7z"/>
	<path d="M108.8,83.7c0.1,0,0.2,0,0.3,0c0,0,0,0,0,0c-0.2,0-0.3,0-0.5-0.1c-1.3-0.1-2.3-0.7-3-1.8c-0.4-0.6-0.7-1.3-0.8-2.1
		c0-0.1,0-0.2,0.1-0.2c1.9,0,3.7,0,5.6,0c2.7,0,5.5,0,8.2,0c0.2,0,0.2,0,0.1,0.2c-0.2,0.9-0.3,1.8-0.5,2.6c-0.1,0.3-0.1,0.6-0.2,0.9
		c0,0.1-0.1,0.1-0.1,0.1c-0.2,0-0.4,0-0.6,0c-1.4,0-2.7,0-4.1,0c-0.1,0-0.1,0-0.1-0.2c0.1-0.5,0.2-1,0.3-1.5c0,0,0-0.1,0-0.1
		c-1.1,1.3-2.4,2-4.1,2.1c0.1,0,0.2,0,0.3,0C109.6,83.7,109.2,83.7,108.8,83.7z"/>
	<path d="M35,83.7c0.1,0,0.2,0,0.3,0c0,0,0,0,0,0C35.2,83.7,35.1,83.6,35,83.7c-1.1-0.2-2.2-0.5-3.1-1.2c-1-0.7-1.5-1.6-1.8-2.8
		c0-0.1,0-0.1,0.1-0.1c0.2,0,0.3,0,0.5,0c4.1,0,8.2,0,12.3,0c0.2,0,0.4,0,0.6,0c0,0,0.1,0,0.1,0c0,0.1-0.1,0.1-0.1,0.2
		c-0.9,1.4-2.1,2.4-3.6,3.1c-0.7,0.3-1.4,0.5-2.2,0.7c-0.3,0.1-0.5,0.1-0.8,0.1c-0.1,0-0.1,0-0.2,0c0.1,0,0.3,0,0.4,0.1
		C36.4,83.7,35.7,83.7,35,83.7z"/>
	<path d="M68.8,83.7c0.1,0,0.2,0,0.3,0c0,0,0,0,0,0c-0.2,0-0.3,0-0.5,0c-1.3-0.1-2.5-0.5-3.5-1.4c-0.5-0.5-0.9-1.1-1.1-1.7
		c-0.1-0.2-0.1-0.5-0.2-0.7c0-0.1,0-0.1,0.1-0.1c1.5,0,3.1,0,4.6,0c0.1,0,0.1,0,0.1,0.1c0.2,0.5,0.6,0.7,1.1,0.8
		c0.6,0.1,1.2,0.1,1.8-0.2c0.3-0.1,0.5-0.3,0.8-0.6c0.1-0.1,0.1-0.1,0.3-0.1c1.5,0,3,0,4.5,0c0,0,0.1,0,0.1,0c0,0.1,0,0.1-0.1,0.2
		c-0.7,1.4-1.9,2.4-3.3,3.1c-0.7,0.3-1.4,0.5-2.2,0.7c-0.3,0-0.6,0.1-0.8,0.1c-0.1,0-0.1,0-0.2,0c0.1,0,0.3,0,0.4,0
		C70.3,83.7,69.5,83.7,68.8,83.7z"/>
	<path d="M13.8,83.3c0-0.1,0.1-0.2,0.1-0.3c0.2-0.9,0.3-1.7,0.5-2.6c0-0.2,0.1-0.4,0.1-0.7c0-0.1,0.1-0.1,0.2-0.1c1.7,0,3.3,0,5,0
		c0.1,0,0.1,0,0.1,0.1c-0.2,0.8-0.3,1.6-0.5,2.5c-0.1,0.3-0.1,0.7-0.2,1c0,0.1-0.1,0.1-0.1,0.1c-0.2,0-0.5,0-0.7,0
		c-1.2,0-2.5,0-3.8,0c-0.2,0-0.4,0-0.6,0C13.8,83.3,13.8,83.3,13.8,83.3z"/>
	<path d="M136.2,68.2c0,0.1-0.1,0.2-0.1,0.3c-0.2,0.7-0.6,1.1-1.3,1.4c-0.6,0.2-1.2,0.2-1.8-0.2c-0.5-0.4-0.8-0.9-0.7-1.6
		c0.1-0.9,1-1.7,1.9-1.8c0.7-0.1,1.3,0.2,1.7,0.8c0.1,0.1,0.1,0.3,0.2,0.4c0,0.1,0.1,0.1,0.1,0.2C136.2,67.9,136.2,68,136.2,68.2z
		 M135.7,68c0-0.1,0-0.2,0-0.3c-0.2-0.6-0.7-1-1.3-1c-0.5,0-1,0.3-1.3,0.7c-0.3,0.4-0.3,0.8-0.2,1.2c0.2,0.6,0.7,0.9,1.4,0.9
		C135,69.5,135.7,68.8,135.7,68z"/>
	<path d="M63.8,75.2c0,0.1-0.1,0.1-0.1,0.1c-0.5,0.9-1,1.8-1.5,2.7c-0.2,0.3-0.3,0.5-0.5,0.8c0,0.1-0.1,0.1-0.2,0.1
		c-0.5,0-1.1,0-1.7,0c-4.6,0-9.1,0-13.7,0c0,0-0.1,0-0.1,0c-0.2,0-0.3,0-0.3-0.3c-0.2-1-0.3-2-0.5-3c0-0.1,0-0.2-0.1-0.3
		c0-0.1,0-0.1,0.1-0.1c0.2,0,0.5,0,0.7,0c1.2,0,2.5,0,3.7,0c0.2,0,0.2,0,0.2,0.2c0.1,0.7,0.1,1.4,0.2,2.1c0,0.1,0,0.3,0,0.4
		c0,0,0,0.1,0,0.1c0-0.1,0.1-0.1,0.1-0.1c0.3-0.8,0.7-1.6,1-2.3c0,0,0,0,0-0.1c0.1-0.2,0.1-0.2,0.3-0.2c1.8,0,3.5,0,5.3,0
		c0.2,0,0.4,0,0.6,0c0.1,0,0.1,0,0.1,0.1c0,0.5,0,1,0,1.4c0,0.4,0,0.8,0.1,1.1c0,0,0,0.1,0,0.1c0,0,0,0,0,0c0-0.1,0.1-0.1,0.1-0.2
		c0.4-0.8,0.7-1.5,1.1-2.3c0,0,0,0,0-0.1c0-0.2,0.2-0.2,0.4-0.2c1.4,0,2.8,0,4.1,0C63.6,75.2,63.7,75.2,63.8,75.2z"/>
	<path d="M15.5,74.5c0.1-0.6,0.2-1.1,0.3-1.7c0.1-0.6,0.2-1.3,0.4-1.9c0-0.1,0.1-0.2,0.2-0.2c2.6,0,5.2,0,7.7,0c2.2,0,4.5,0,6.7,0
		c0.1,0,0.2,0,0.2,0.1c0.1,0.6,0,1.2-0.1,1.8s-0.3,1.1-0.5,1.7c-0.1,0.1-0.1,0.2-0.2,0.2c-1.7,0-3.5,0-5.2,0c-3.1,0-6.2,0-9.3,0
		C15.7,74.5,15.6,74.5,15.5,74.5z"/>
	<path d="M30,75.2c-0.1,0.1-0.1,0.2-0.1,0.2c-0.4,0.5-0.8,1.1-1.3,1.5c-1,0.9-2.1,1.5-3.4,1.8c-0.6,0.1-1.1,0.2-1.7,0.2
		c-2.8,0-5.6,0-8.4,0c-0.1,0-0.2,0-0.4,0c0.1-0.3,0.1-0.6,0.2-0.9c0.2-0.9,0.3-1.8,0.5-2.7c0-0.2,0-0.2,0.2-0.2c0.4,0,0.8,0,1.2,0
		c4.1,0,8.2,0,12.3,0c0.2,0,0.4,0,0.5,0C29.7,75.2,29.8,75.2,30,75.2z"/>
	<path d="M23.6,70c-2.3,0-4.7,0-7,0c0,0-0.1,0-0.1,0c-0.1,0-0.1,0-0.1-0.1c0.1-0.3,0.2-0.7,0.2-1.1c0.2-0.8,0.3-1.6,0.5-2.4
		c0-0.1,0.1-0.2,0.2-0.2c2.8,0,5.7,0,8.5,0c1.3,0,2.4,0.4,3.4,1.2c0.7,0.6,1.2,1.3,1.5,2.3c0,0,0,0.1,0,0.1c0.1,0.2,0.1,0.2-0.2,0.2
		C28.3,70,26,70,23.6,70C23.6,70,23.6,70,23.6,70z"/>
	<path d="M69.3,75.2c0,0.1,0,0.1-0.1,0.1c-0.1,0.2-0.1,0.4-0.2,0.6c0,0.1,0,0.1,0.1,0.1s0.2,0,0.3,0c1.2,0,2.4,0,3.6,0
		c0.3,0,0.3,0,0.3-0.2c0-0.2,0-0.3,0-0.5c0-0.1,0-0.1,0.1-0.1c0.5,0,0.9,0,1.4,0c1.1,0,2.1,0,3.2,0c0.2,0,0.2,0,0.2,0.2
		c0,0.7-0.1,1.4-0.3,2.1c-0.1,0.3-0.2,0.5-0.2,0.8c0,0.1-0.1,0.1-0.2,0.1c-2.9,0-5.8,0-8.8,0c-0.2,0-0.2,0-0.2,0.2
		c0,0.1,0,0.2,0,0.3c0,0.1,0,0.1-0.1,0.1c-1.5,0-2.9,0-4.4,0c0,0-0.1,0-0.1,0c-0.2,0-0.2,0-0.2-0.2c0-0.7,0.1-1.3,0.2-2
		c0.1-0.5,0.3-1.1,0.6-1.6c0,0,0.1-0.1,0.1-0.1c0.2,0,0.3,0,0.5,0c1.4,0,2.7,0,4.1,0C69.2,75.2,69.3,75.2,69.3,75.2z"/>
	<path d="M95.4,73c0.1-0.1,0.1-0.1,0.2-0.2c0.4-0.5,0.9-0.8,1.4-1.1c0.6-0.4,1.4-0.6,2.1-0.7c0.5-0.1,1-0.1,1.5,0
		c0.9,0.1,1.6,0.5,2.3,1.1c0.6,0.5,0.9,1.2,1.2,1.9c0,0.1,0.1,0.3,0.1,0.5c-0.2,0-0.5,0-0.7,0c-4.1,0-8.2,0-12.3,0
		c-0.3,0-0.5,0-0.8,0c-0.2,0-0.2,0-0.2-0.2c0.1-0.5,0.2-0.9,0.3-1.4c0.1-0.6,0.2-1.2,0.4-1.8c0-0.1,0-0.2,0-0.3
		c0-0.1,0.1-0.1,0.1-0.1c0.1,0,0.1,0,0.2,0c1.5,0,2.9,0,4.4,0c0,0,0.1,0,0.1,0c0.2,0,0.2,0,0.2,0.2c-0.1,0.6-0.3,1.2-0.4,1.9
		C95.4,72.8,95.4,72.9,95.4,73C95.4,73,95.4,73,95.4,73z"/>
	<path d="M106,74.5c0-0.1,0.1-0.1,0.1-0.1c0.6-0.9,1.3-1.7,2.2-2.3c0.8-0.5,1.7-0.9,2.6-1c0.6-0.1,1.2-0.1,1.7,0
		c0.6,0.1,1.2,0.3,1.8,0.7c0.4,0.3,0.7,0.7,0.9,1.1c0,0,0,0.1,0.1,0.1c0-0.1,0.1-0.1,0.1-0.1c0.1-0.5,0.2-1,0.3-1.5
		c0-0.1,0-0.1,0.1-0.1c0.2,0,0.4,0,0.6,0c1.3,0,2.7,0,4,0c0.2,0,0.1,0,0.1,0.1c-0.1,0.7-0.3,1.3-0.4,2c-0.1,0.3-0.1,0.7-0.2,1
		c0,0.1-0.1,0.1-0.1,0.1c-0.5,0-0.9,0-1.4,0c-4.1,0-8.1,0-12.2,0C106.2,74.5,106.1,74.5,106,74.5z"/>
	<path d="M31.1,74.5c0.2-0.2,0.3-0.4,0.5-0.6c0.5-0.7,1.2-1.2,1.9-1.6c1-0.6,2-1,3.1-1.2c0.5-0.1,1-0.1,1.5-0.2
		c0.7-0.1,1.4,0,2.2,0.2c1.3,0.3,2.5,0.8,3.3,1.8c0.3,0.4,0.7,1.2,0.8,1.6C40,74.5,35.6,74.5,31.1,74.5z"/>
	<path d="M78.1,74.5c-0.1,0-0.2,0-0.2,0c-1.4,0-2.8,0-4.2,0c-0.2,0-0.4,0-0.5,0c-0.1,0-0.1,0-0.2-0.1c-0.4-0.3-0.9-0.5-1.4-0.5
		c-0.6,0-1.1,0.2-1.6,0.5c-0.1,0-0.1,0-0.2,0c-1,0-1.9,0-2.9,0c-0.6,0-1.2,0-1.9,0c-0.1,0-0.1,0-0.2,0c0.1-0.2,0.2-0.3,0.3-0.4
		c0.7-1,1.7-1.7,2.8-2.2c0.8-0.4,1.6-0.6,2.5-0.8c0.5-0.1,1.1-0.1,1.6-0.1c0.5,0,1.1,0.1,1.6,0.1c0.6,0.1,1.1,0.2,1.6,0.4
		c1,0.4,1.9,1.1,2.4,2.1C77.9,73.9,78,74.2,78.1,74.5z"/>
	<path d="M121.1,74.5c0.1-0.5,0.2-0.9,0.3-1.3c0.1-0.6,0.2-1.2,0.3-1.8c0-0.1,0-0.1,0.1-0.1c0.2,0,0.3,0,0.5,0c1.4,0,2.8,0,4.2,0
		c0,0,0.1,0,0.1,0c0.1,0,0.1,0,0.1,0.1c-0.1,0.2-0.1,0.5-0.2,0.7c-0.1,0.3-0.1,0.6-0.2,0.9c0,0,0,0.1,0,0.1c0.1-0.1,0.1-0.1,0.2-0.2
		c0.4-0.5,0.9-0.9,1.5-1.2c0.5-0.3,1.1-0.5,1.7-0.6c0.4-0.1,0.8-0.1,1.2-0.1c0.2,0,0.5,0.1,0.7,0.1c0.1,0,0.1,0.1,0.1,0.2
		c-0.1,0.6-0.2,1.2-0.4,1.8c-0.1,0.4-0.2,0.9-0.2,1.3c0,0.1-0.1,0.1-0.1,0.1c-0.3,0-0.6,0-0.9,0c-2.9,0-5.8,0-8.7,0
		C121.3,74.5,121.2,74.5,121.1,74.5z"/>
	<path d="M84.5,73.1c0.1-0.1,0.1-0.1,0.2-0.2c0.5-0.6,1.1-1.1,1.8-1.4c0.5-0.3,1.1-0.4,1.7-0.5c0.5-0.1,1.1-0.1,1.6,0.1
		c0.2,0,0.2,0,0.1,0.2c-0.2,0.9-0.4,1.9-0.6,2.8c0,0,0,0.1,0,0.1c-0.1,0.2-0.1,0.2-0.3,0.2c-0.1,0-0.3,0-0.4,0c-3.1,0-6.1,0-9.2,0
		c0,0-0.1,0-0.1,0c0,0-0.1-0.1-0.1-0.1c0.1-0.5,0.2-1.1,0.3-1.6c0.1-0.5,0.2-1,0.3-1.4c0-0.1,0-0.1,0.1-0.1c0.1,0,0.1,0,0.2,0
		c1.5,0,3,0,4.5,0c0.2,0,0.2,0,0.2,0.2C84.8,72,84.6,72.5,84.5,73.1C84.5,73.1,84.5,73.1,84.5,73.1z"/>
	<path d="M61.3,79.6c0,0.1,0,0.1-0.1,0.1c-0.7,1.2-1.3,2.3-2,3.5c0,0.1-0.1,0.1-0.2,0.1c-0.2,0-0.3,0-0.5,0c-1.2,0-2.4,0-3.6,0
		c-0.2,0-0.2,0-0.2-0.2c0-0.5-0.1-0.9-0.1-1.4c-0.1-0.5-0.1-1.1-0.2-1.6c0-0.2,0-0.3-0.1-0.5C56.7,79.6,59,79.6,61.3,79.6z"/>
	<path d="M48.8,83.4c-0.7,0-1.4,0-2,0c-0.1,0-0.1,0-0.2-0.1c-0.1-0.6-0.2-1.3-0.3-1.9c-0.1-0.5-0.2-1.1-0.3-1.6c0-0.1,0-0.1,0.1-0.1
		c0.9,0,1.7,0,2.6,0c1.3,0,2.6,0,4,0c0.2,0,0.2,0,0.1,0.2c-0.3,0.6-0.6,1.3-0.9,1.9c-0.3,0.5-0.5,1.1-0.8,1.6c0,0-0.1,0.1-0.1,0.1
		C50.2,83.4,49.5,83.4,48.8,83.4C48.8,83.4,48.8,83.4,48.8,83.4z"/>
	<path d="M128.9,75.2c0,0-0.1,0-0.1,0c-0.3,0.1-0.7,0.2-1,0.3c-0.7,0.2-1.3,0.7-1.7,1.3c-0.5,0.6-0.7,1.2-0.9,1.9
		c0,0.2-0.1,0.2-0.2,0.2c-1.5,0-3.1,0-4.6,0c-0.2,0-0.2,0-0.1-0.2c0.1-0.7,0.3-1.4,0.4-2.1c0.1-0.4,0.2-0.9,0.2-1.3
		c0-0.1,0.1-0.1,0.1-0.1c0.2,0,0.3,0,0.5,0c1.8,0,3.7,0,5.5,0c0.6,0,1.1,0,1.7,0C128.8,75.2,128.8,75.2,128.9,75.2
		C128.9,75.2,128.9,75.2,128.9,75.2z"/>
	<path d="M87.2,75.2c-0.2,0-0.4,0.1-0.5,0.1c-1.1,0.2-2,0.8-2.6,1.7c-0.3,0.5-0.5,1.1-0.6,1.7c0,0.1-0.1,0.1-0.2,0.1
		c-1.6,0-3.1,0-4.7,0c-0.2,0-0.2,0-0.1-0.2c0.2-0.8,0.3-1.5,0.5-2.3c0.1-0.3,0.1-0.6,0.2-0.9c0-0.1,0-0.2,0-0.3
		c0-0.1,0.1-0.1,0.2-0.1c0.1,0,0.2,0,0.3,0c1.9,0,3.8,0,5.8,0c0.5,0,1.1,0,1.6,0C87,75.2,87.1,75.2,87.2,75.2
		C87.2,75.2,87.2,75.2,87.2,75.2z"/>
	<path d="M96.1,75.2c-0.7,0.3-1.2,0.9-1.4,1.6c-0.3,0.7-0.3,1.4,0.1,2.1c-0.1,0-0.1,0-0.1,0c-1.8,0-3.5,0-5.3,0
		c-0.1,0-0.1,0-0.1-0.1c0.2-0.8,0.3-1.6,0.5-2.4c0.1-0.3,0.1-0.6,0.2-0.9c0,0,0-0.1,0-0.1c0-0.2,0-0.2,0.2-0.2c1.5,0,3.1,0,4.6,0
		c0.4,0,0.8,0,1.2,0C96,75.2,96,75.2,96.1,75.2C96.1,75.2,96.1,75.2,96.1,75.2z"/>
	<path d="M113.7,78.9c0,0,0.1-0.1,0.1-0.1c0.6-0.6,0.8-1.3,0.8-2.1c0-0.6-0.3-1.1-0.8-1.5c0,0,0,0-0.1,0c0.1,0,0.1,0,0.1,0
		c0.3,0,0.5,0,0.8,0c1.7,0,3.3,0,5,0c0.3,0,0.3,0,0.2,0.3c-0.1,0.6-0.3,1.3-0.4,1.9c-0.1,0.5-0.2,1-0.3,1.5c0,0.1-0.1,0.1-0.1,0.1
		c-0.3,0-0.6,0-0.9,0c-1.4,0-2.8,0-4.2,0C113.8,78.9,113.8,78.9,113.7,78.9C113.7,78.9,113.7,78.9,113.7,78.9z"/>
	<path d="M98.4,78.9c0.1-0.1,0.1-0.1,0.2-0.2c0.5-0.5,0.8-1.2,0.8-1.9c0-0.6-0.3-1.2-0.8-1.6c0,0,0,0-0.1-0.1c0,0,0,0,0,0
		c0.1,0,0.2,0,0.3,0c1.6,0,3.2,0,4.8,0c0.2,0,0.4,0,0.6,0c0.2,0,0.2,0,0.2,0.2c0,0.2,0,0.4,0,0.6c0,0.5-0.1,0.9-0.1,1.4
		c-0.1,0.5-0.2,1-0.4,1.4c0,0.1-0.1,0.2-0.2,0.2c-1.7,0-3.4,0-5,0C98.5,78.9,98.5,78.9,98.4,78.9z"/>
	<path d="M111.5,75.2c-0.7,0.4-1.2,0.9-1.4,1.6c-0.3,0.7-0.3,1.4,0.1,2.1c-0.1,0-0.1,0-0.1,0c-1.7,0-3.4,0-5.1,0
		c-0.2,0-0.2,0-0.2-0.2c0-1,0.2-1.9,0.5-2.8c0.1-0.2,0.2-0.4,0.2-0.6c0-0.1,0.1-0.1,0.2-0.1c1,0,2,0,3,0c0.8,0,1.7,0,2.5,0
		C111.3,75.2,111.4,75.2,111.5,75.2C111.4,75.2,111.5,75.2,111.5,75.2z"/>
	<path d="M38.8,78.9c0.1-0.1,0.1-0.1,0.2-0.2c0.6-0.7,0.8-1.5,0.6-2.4c-0.1-0.4-0.3-0.7-0.7-1c0,0-0.1,0-0.1-0.1c0.1,0,0.1,0,0.2,0
		c0.8,0,1.5,0,2.2,0c1,0,1.9,0,2.9,0c0.1,0,0.2,0,0.3,0c0.1,0,0.1,0,0.1,0.1c0,0.6,0.1,1.1,0,1.7c-0.1,0.6-0.2,1.2-0.5,1.7
		c-0.1,0.2-0.1,0.2-0.3,0.2c-1.6,0-3.3,0-4.9,0C38.9,78.9,38.9,78.9,38.8,78.9C38.8,78.9,38.8,78.9,38.8,78.9z"/>
	<path d="M36.5,75.2c-0.7,0.4-1.2,0.9-1.4,1.6c-0.3,0.7-0.3,1.4,0.1,2.1c-0.1,0-0.1,0-0.1,0c-1.7,0-3.3,0-5,0c-0.1,0-0.1,0-0.1-0.1
		c-0.1-1.2,0.2-2.3,0.7-3.4c0.1-0.1,0.2-0.2,0.3-0.2c1.4,0,2.9,0,4.3,0c0.3,0,0.7,0,1,0C36.4,75.2,36.4,75.2,36.5,75.2z"/>
	<path d="M122.5,79.6c0.8,0,1.6,0,2.3,0c0.1,0,0.1,0,0.1,0.1c-0.2,0.9-0.4,1.8-0.5,2.7c-0.1,0.3-0.1,0.5-0.2,0.8
		c0,0-0.1,0.1-0.1,0.1c-0.2,0-0.3,0-0.5,0c-1.4,0-2.7,0-4.1,0c-0.1,0-0.1,0-0.2,0c-0.1,0-0.1,0-0.1-0.1c0.2-0.8,0.3-1.6,0.5-2.4
		c0.1-0.4,0.1-0.8,0.2-1.2c0,0,0.1-0.1,0.1-0.1c0.1,0,0.2,0,0.2,0C121.1,79.6,121.8,79.6,122.5,79.6L122.5,79.6z"/>
	<path d="M80,83.4c-0.8,0-1.5,0-2.3,0c-0.2,0-0.2,0-0.1-0.2c0.1-0.4,0.2-0.9,0.3-1.3c0.1-0.4,0.2-0.8,0.2-1.2
		c0.1-0.3,0.1-0.6,0.2-0.9c0,0,0.1-0.1,0.1-0.1c0.1,0,0.1,0,0.2,0c1.5,0,3,0,4.5,0c0.2,0,0.2,0,0.1,0.2c-0.1,0.5-0.2,0.9-0.3,1.4
		c-0.1,0.6-0.3,1.3-0.4,1.9c-0.1,0.3-0.1,0.3-0.3,0.3C81.5,83.4,80.7,83.4,80,83.4L80,83.4z"/>
	<path d="M91,70c0-0.2,0.1-0.3,0.1-0.5c0.1-0.7,0.3-1.4,0.4-2.1c0.1-0.3,0.1-0.7,0.2-1c0-0.2,0-0.2,0.2-0.2c1.5,0,3.1,0,4.6,0
		c0.2,0,0.2,0,0.1,0.2c-0.1,0.7-0.3,1.4-0.4,2.2c-0.1,0.4-0.2,0.9-0.3,1.3c0,0.1,0,0.1-0.1,0.1C94.3,70,92.7,70,91,70
		C91.1,70,91,70,91,70z"/>
	<path d="M57.6,74.5c-0.1,0-0.2,0-0.4,0c-1.8,0-3.6,0-5.4,0c0,0-0.1,0-0.1,0c-0.1,0-0.1,0-0.1-0.1c0.3-0.7,0.6-1.4,0.9-2.1
		c0.1-0.3,0.3-0.6,0.4-1c0-0.1,0.1-0.1,0.2-0.1c0.2,0,0.4,0,0.6,0c1.2,0,2.4,0,3.6,0c0.2,0,0.2,0,0.2,0.2c0,0.7,0.1,1.3,0.1,2
		C57.6,73.7,57.6,74.1,57.6,74.5z"/>
	<path d="M66,71.3c0,0.1-0.1,0.1-0.1,0.2c-0.5,0.9-1,1.8-1.5,2.7c0,0,0,0.1,0,0.1c-0.1,0.2-0.2,0.3-0.4,0.3c-1.3,0-2.6,0-3.9,0
		c-0.2,0-0.3,0-0.5,0c0-0.1,0-0.1,0-0.1c0.4-0.8,0.8-1.5,1.1-2.3c0.1-0.2,0.2-0.5,0.3-0.7c0,0,0.1-0.1,0.1-0.1c0.2,0,0.4,0,0.6,0
		c1.4,0,2.7,0,4.1,0C65.9,71.2,65.9,71.2,66,71.3z"/>
	<path d="M47,71.2c0.8,0,1.5,0,2.3,0c0.2,0,0.2,0,0.2,0.2c0,0.4,0.1,0.7,0.1,1.1c0,0.4,0.1,0.8,0.1,1.2c0,0.2,0,0.4,0.1,0.5
		c0,0.2,0,0.2-0.1,0.2c-0.4,0-0.8,0-1.2,0c-1,0-2,0-3.1,0c-0.3,0-0.3,0-0.3-0.3c-0.1-0.8-0.3-1.6-0.4-2.4c0-0.2-0.1-0.3-0.1-0.5
		c0-0.1,0-0.1,0.1-0.1C45.4,71.2,46.2,71.2,47,71.2C47,71.2,47,71.2,47,71.2z"/>
	<path d="M134.8,68.4c0.1,0.2,0.1,0.4,0.2,0.6c0,0.1,0,0.1-0.1,0.1c-0.1,0-0.2,0-0.3,0c-0.2,0-0.2,0-0.3-0.2c0-0.1-0.1-0.2-0.1-0.3
		c0,0-0.1-0.1-0.1-0.1c-0.1,0-0.1,0.1-0.1,0.1c0,0.1,0,0.2-0.1,0.4s-0.1,0.2-0.2,0.2c-0.1,0-0.2,0-0.3,0c-0.1,0-0.1,0-0.1-0.1
		c0.1-0.2,0.1-0.5,0.1-0.7c0.1-0.3,0.1-0.6,0.2-0.9c0-0.1,0.1-0.2,0.2-0.2c0.3,0,0.6,0,0.8,0c0,0,0.1,0,0.1,0
		c0.5,0.1,0.6,0.6,0.3,0.9C135,68.2,134.9,68.3,134.8,68.4z M134.2,68c0.3,0,0.4-0.1,0.4-0.2c0-0.1-0.1-0.2-0.3-0.2
		c-0.1,0-0.1,0.1-0.2,0.3C134.2,67.9,134.2,68,134.2,68z"/>
</g>
</svg>
